<?xml version="1.0" encoding="UTF-8" standalone="no"?>
<!-- Created with Inkscape (http://www.inkscape.org/) -->

<svg
   width="115mm"
   height="70mm"
   viewBox="0 0 115 70"
   version="1.1"
   id="svg5"
   sodipodi:docname="quantics_spectra_energy.svg"
   inkscape:version="1.1.2 (0a00cf5339, 2022-02-04)"
   xmlns:inkscape="http://www.inkscape.org/namespaces/inkscape"
   xmlns:sodipodi="http://sodipodi.sourceforge.net/DTD/sodipodi-0.dtd"
   xmlns:xlink="http://www.w3.org/1999/xlink"
   xmlns="http://www.w3.org/2000/svg"
   xmlns:svg="http://www.w3.org/2000/svg">
  <sodipodi:namedview
     id="namedview7"
     pagecolor="#ffffff"
     bordercolor="#666666"
     borderopacity="1.0"
     inkscape:pageshadow="2"
     inkscape:pageopacity="0.0"
     inkscape:pagecheckerboard="0"
     inkscape:document-units="mm"
     showgrid="false"
     inkscape:zoom="1.3273709"
     inkscape:cx="99.068013"
     inkscape:cy="106.97839"
     inkscape:window-width="2048"
     inkscape:window-height="1043"
     inkscape:window-x="0"
     inkscape:window-y="0"
     inkscape:window-maximized="1"
     inkscape:current-layer="layer1"
     inkscape:snap-global="false"
     inkscape:snap-grids="true"
     width="112mm">
    <inkscape:grid
       type="xygrid"
       id="grid53651" />
  </sodipodi:namedview>
  <defs
     id="defs2">
    <marker
       style="overflow:visible"
       id="Arrow1Mstart"
       refX="0"
       refY="0"
       orient="auto"
       inkscape:stockid="Arrow1Mstart"
       inkscape:isstock="true">
      <path
         transform="matrix(0.4,0,0,0.4,4,0)"
         style="fill:context-stroke;fill-rule:evenodd;stroke:context-stroke;stroke-width:1pt"
         d="M 0,0 5,-5 -12.5,0 5,5 Z"
         id="path945" />
    </marker>
    <rect
       x="11.584769"
       y="244.87007"
       width="97.740219"
       height="24.442223"
       id="rect21937" />
    <marker
       style="overflow:visible"
       id="Arrow1Mend"
       refX="0"
       refY="0"
       orient="auto"
       inkscape:stockid="Arrow1Mend"
       inkscape:isstock="true">
      <path
         transform="matrix(-0.4,0,0,-0.4,-4,0)"
         style="fill:context-stroke;fill-rule:evenodd;stroke:context-stroke;stroke-width:1pt"
         d="M 0,0 5,-5 -12.5,0 5,5 Z"
         id="path948" />
    </marker>
    <marker
       style="overflow:visible"
       id="Arrow1Lstart"
       refX="0"
       refY="0"
       orient="auto"
       inkscape:stockid="Arrow1Lstart"
       inkscape:isstock="true">
      <path
         transform="matrix(0.8,0,0,0.8,10,0)"
         style="fill:context-stroke;fill-rule:evenodd;stroke:context-stroke;stroke-width:1pt"
         d="M 0,0 5,-5 -12.5,0 5,5 Z"
         id="path939" />
    </marker>
    <g
       id="g7750">
      <symbol
         overflow="visible"
         id="symbol5023">
        <path
           style="stroke:none"
           d=""
           id="path3475" />
      </symbol>
      <symbol
         overflow="visible"
         id="symbol9573">
        <path
           style="stroke:none"
           d="m 5.453125,-6.453125 c 0.0625,-0.109375 0.0625,-0.125 0.0625,-0.203125 0,-0.15625 -0.046875,-0.15625 -0.25,-0.15625 h -4.46875 l -0.109375,2.25 h 0.25 C 1,-5.6875 1.3125,-6.5 2.9375,-6.5 H 4.5 L 0.625,-0.375 C 0.5625,-0.265625 0.5625,-0.25 0.5625,-0.171875 0.5625,0 0.609375,0 0.8125,0 h 4.59375 l 0.171875,-2.65625 h -0.25 C 5.25,-1.28125 5.0625,-0.34375 3.21875,-0.34375 H 1.578125 Z m 0,0"
           id="path8374" />
      </symbol>
      <symbol
         overflow="visible"
         id="symbol1513">
        <path
           style="stroke:none"
           d="m 2.265625,-3.15625 h 1.6875 c 1.1875,0 2.265625,-0.796875 2.265625,-1.796875 C 6.21875,-5.9375 5.234375,-6.8125 3.875,-6.8125 H 0.34375 V -6.5 h 0.25 c 0.765625,0 0.78125,0.109375 0.78125,0.46875 v 5.25 c 0,0.359375 -0.015625,0.46875 -0.78125,0.46875 h -0.25 V 0 c 0.359375,-0.03125 1.09375,-0.03125 1.46875,-0.03125 0.375,0 1.125,0 1.484375,0.03125 v -0.3125 h -0.25 c -0.765625,0 -0.78125,-0.109375 -0.78125,-0.46875 z m -0.03125,-0.25 v -2.6875 C 2.234375,-6.4375 2.25,-6.5 2.71875,-6.5 h 0.890625 c 1.578125,0 1.578125,1.0625 1.578125,1.546875 0,0.46875 0,1.546875 -1.578125,1.546875 z m 0,0"
           id="path4230" />
      </symbol>
      <symbol
         overflow="visible"
         id="symbol3778">
        <path
           style="stroke:none"
           d="m 1.359375,-0.78125 c 0,0.359375 -0.03125,0.46875 -0.796875,0.46875 H 0.328125 V 0 h 5.75 L 6.5,-2.578125 H 6.25 C 6,-1.03125 5.765625,-0.3125 4.0625,-0.3125 H 2.734375 C 2.265625,-0.3125 2.25,-0.375 2.25,-0.703125 V -3.375 h 0.890625 c 0.96875,0 1.078125,0.328125 1.078125,1.171875 h 0.25 V -4.84375 h -0.25 c 0,0.859375 -0.109375,1.171875 -1.078125,1.171875 H 2.25 v -2.40625 c 0,-0.328125 0.015625,-0.390625 0.484375,-0.390625 h 1.28125 c 1.53125,0 1.796875,0.546875 1.953125,1.9375 h 0.25 l -0.28125,-2.25 H 0.328125 v 0.3125 H 0.5625 c 0.765625,0 0.796875,0.109375 0.796875,0.46875 z m 0,0"
           id="path4168" />
      </symbol>
      <symbol
         overflow="visible"
         id="symbol9621">
        <path
           style="stroke:none"
           d="m 3.296875,2.390625 c 0,-0.03125 0,-0.046875 -0.171875,-0.21875 C 1.890625,0.921875 1.5625,-0.96875 1.5625,-2.5 c 0,-1.734375 0.375,-3.46875 1.609375,-4.703125 0.125,-0.125 0.125,-0.140625 0.125,-0.171875 0,-0.078125 -0.03125,-0.109375 -0.09375,-0.109375 -0.109375,0 -1,0.6875 -1.59375,1.953125 -0.5,1.09375 -0.625,2.203125 -0.625,3.03125 0,0.78125 0.109375,1.984375 0.65625,3.125 C 2.25,1.84375 3.09375,2.5 3.203125,2.5 c 0.0625,0 0.09375,-0.03125 0.09375,-0.109375 z m 0,0"
           id="path637" />
      </symbol>
      <symbol
         overflow="visible"
         id="symbol2485">
        <path
           style="stroke:none"
           d="m 3.484375,-3.875 -1.28125,-0.296875 c -0.625,-0.15625 -1,-0.6875 -1,-1.265625 0,-0.703125 0.53125,-1.3125 1.3125,-1.3125 1.65625,0 1.875,1.640625 1.9375,2.078125 0.015625,0.0625 0.015625,0.125 0.125,0.125 0.125,0 0.125,-0.046875 0.125,-0.234375 v -2 c 0,-0.171875 0,-0.25 -0.109375,-0.25 -0.0625,0 -0.078125,0.015625 -0.140625,0.140625 l -0.359375,0.5625 C 3.796875,-6.625 3.390625,-7.03125 2.5,-7.03125 c -1.109375,0 -1.9375,0.875 -1.9375,1.9375 0,0.828125 0.53125,1.5625 1.296875,1.828125 0.109375,0.03125 0.625,0.15625 1.328125,0.328125 0.265625,0.0625 0.5625,0.140625 0.84375,0.5 0.203125,0.265625 0.3125,0.59375 0.3125,0.921875 0,0.703125 -0.5,1.421875 -1.34375,1.421875 -0.28125,0 -1.046875,-0.046875 -1.578125,-0.53125 C 0.84375,-1.171875 0.8125,-1.796875 0.8125,-2.15625 0.796875,-2.265625 0.71875,-2.265625 0.6875,-2.265625 c -0.125,0 -0.125,0.078125 -0.125,0.25 v 2 c 0,0.171875 0,0.234375 0.109375,0.234375 0.0625,0 0.078125,-0.015625 0.140625,-0.125 0,-0.015625 0.03125,-0.046875 0.359375,-0.578125 0.3125,0.34375 0.953125,0.703125 1.84375,0.703125 1.15625,0 1.953125,-0.96875 1.953125,-2.078125 0,-0.984375 -0.65625,-1.8125 -1.484375,-2.015625 z m 0,0"
           id="path5044" />
      </symbol>
      <symbol
         overflow="visible"
         id="symbol1235">
        <path
           style="stroke:none"
           d="m 2.875,-2.5 c 0,-0.765625 -0.109375,-1.96875 -0.65625,-3.109375 -0.59375,-1.21875 -1.453125,-1.875 -1.546875,-1.875 -0.0625,0 -0.109375,0.046875 -0.109375,0.109375 0,0.03125 0,0.046875 0.1875,0.234375 0.984375,0.984375 1.546875,2.5625 1.546875,4.640625 0,1.71875 -0.359375,3.46875 -1.59375,4.71875 C 0.5625,2.34375 0.5625,2.359375 0.5625,2.390625 0.5625,2.453125 0.609375,2.5 0.671875,2.5 0.765625,2.5 1.671875,1.8125 2.25,0.546875 2.765625,-0.546875 2.875,-1.65625 2.875,-2.5 Z m 0,0"
           id="path8552" />
      </symbol>
      <symbol
         overflow="visible"
         id="symbol479">
        <path
           style="stroke:none"
           d=""
           id="path2788" />
      </symbol>
      <symbol
         overflow="visible"
         id="symbol4502">
        <path
           style="stroke:none"
           d="M 3.59375,-2.21875 C 3.59375,-2.984375 3.5,-3.546875 3.1875,-4.03125 2.96875,-4.34375 2.53125,-4.625 1.984375,-4.625 c -1.625,0 -1.625,1.90625 -1.625,2.40625 0,0.5 0,2.359375 1.625,2.359375 1.609375,0 1.609375,-1.859375 1.609375,-2.359375 z M 1.984375,-0.0625 c -0.328125,0 -0.75,-0.1875 -0.890625,-0.75 C 1,-1.21875 1,-1.796875 1,-2.3125 1,-2.828125 1,-3.359375 1.09375,-3.734375 1.25,-4.28125 1.6875,-4.4375 1.984375,-4.4375 c 0.375,0 0.734375,0.234375 0.859375,0.640625 0.109375,0.375 0.125,0.875 0.125,1.484375 0,0.515625 0,1.03125 -0.09375,1.46875 -0.140625,0.640625 -0.609375,0.78125 -0.890625,0.78125 z m 0,0"
           id="path4854" />
      </symbol>
    </g>
    <g
       id="g9012">
      <symbol
         overflow="visible"
         id="symbol5457">
        <path
           style="stroke:none"
           d=""
           id="path1208" />
      </symbol>
      <symbol
         overflow="visible"
         id="symbol7288">
        <path
           style="stroke:none"
           d="m 1.53125,-5.875 c 0,-0.59375 -0.25,-1.046875 -0.671875,-1.046875 -0.34375,0 -0.53125,0.265625 -0.53125,0.53125 0,0.265625 0.171875,0.53125 0.53125,0.53125 0.203125,0 0.34375,-0.109375 0.390625,-0.15625 0.015625,-0.03125 0.03125,-0.03125 0.03125,-0.03125 0.03125,0 0.03125,0.140625 0.03125,0.171875 0,0.328125 -0.078125,1.046875 -0.703125,1.65625 -0.125,0.125 -0.125,0.140625 -0.125,0.171875 0,0.0625 0.046875,0.109375 0.109375,0.109375 0.109375,0 0.9375,-0.75 0.9375,-1.9375 z m 1.921875,0 c 0,-0.59375 -0.234375,-1.046875 -0.65625,-1.046875 -0.359375,0 -0.53125,0.265625 -0.53125,0.53125 0,0.265625 0.171875,0.53125 0.53125,0.53125 0.1875,0 0.328125,-0.109375 0.390625,-0.15625 0.015625,-0.03125 0.015625,-0.03125 0.03125,-0.03125 0.015625,0 0.015625,0.140625 0.015625,0.171875 0,0.328125 -0.0625,1.046875 -0.6875,1.65625 -0.125,0.125 -0.125,0.140625 -0.125,0.171875 0,0.0625 0.046875,0.109375 0.09375,0.109375 0.109375,0 0.9375,-0.75 0.9375,-1.9375 z m 0,0"
           id="path6236" />
      </symbol>
      <symbol
         overflow="visible"
         id="symbol1601">
        <path
           style="stroke:none"
           d="m 5.453125,-6.453125 c 0.0625,-0.109375 0.0625,-0.125 0.0625,-0.203125 0,-0.15625 -0.046875,-0.15625 -0.25,-0.15625 h -4.46875 l -0.109375,2.25 h 0.25 C 1,-5.6875 1.3125,-6.5 2.9375,-6.5 H 4.5 L 0.625,-0.375 C 0.5625,-0.265625 0.5625,-0.25 0.5625,-0.171875 0.5625,0 0.609375,0 0.8125,0 h 4.59375 l 0.171875,-2.65625 h -0.25 C 5.25,-1.28125 5.0625,-0.34375 3.21875,-0.34375 H 1.578125 Z m 0,0"
           id="path5142" />
      </symbol>
      <symbol
         overflow="visible"
         id="symbol7113">
        <path
           style="stroke:none"
           d="m 2.265625,-3.15625 h 1.6875 c 1.1875,0 2.265625,-0.796875 2.265625,-1.796875 C 6.21875,-5.9375 5.234375,-6.8125 3.875,-6.8125 H 0.34375 V -6.5 h 0.25 c 0.765625,0 0.78125,0.109375 0.78125,0.46875 v 5.25 c 0,0.359375 -0.015625,0.46875 -0.78125,0.46875 h -0.25 V 0 c 0.359375,-0.03125 1.09375,-0.03125 1.46875,-0.03125 0.375,0 1.125,0 1.484375,0.03125 v -0.3125 h -0.25 c -0.765625,0 -0.78125,-0.109375 -0.78125,-0.46875 z m -0.03125,-0.25 v -2.6875 C 2.234375,-6.4375 2.25,-6.5 2.71875,-6.5 h 0.890625 c 1.578125,0 1.578125,1.0625 1.578125,1.546875 0,0.46875 0,1.546875 -1.578125,1.546875 z m 0,0"
           id="path8700" />
      </symbol>
      <symbol
         overflow="visible"
         id="symbol8638">
        <path
           style="stroke:none"
           d="m 1.359375,-0.78125 c 0,0.359375 -0.03125,0.46875 -0.796875,0.46875 H 0.328125 V 0 h 5.75 L 6.5,-2.578125 H 6.25 C 6,-1.03125 5.765625,-0.3125 4.0625,-0.3125 H 2.734375 C 2.265625,-0.3125 2.25,-0.375 2.25,-0.703125 V -3.375 h 0.890625 c 0.96875,0 1.078125,0.328125 1.078125,1.171875 h 0.25 V -4.84375 h -0.25 c 0,0.859375 -0.109375,1.171875 -1.078125,1.171875 H 2.25 v -2.40625 c 0,-0.328125 0.015625,-0.390625 0.484375,-0.390625 h 1.28125 c 1.53125,0 1.796875,0.546875 1.953125,1.9375 h 0.25 l -0.28125,-2.25 H 0.328125 v 0.3125 H 0.5625 c 0.765625,0 0.796875,0.109375 0.796875,0.46875 z m 0,0"
           id="path1464" />
      </symbol>
      <symbol
         overflow="visible"
         id="symbol3927">
        <path
           style="stroke:none"
           d="m 3.296875,2.390625 c 0,-0.03125 0,-0.046875 -0.171875,-0.21875 C 1.890625,0.921875 1.5625,-0.96875 1.5625,-2.5 c 0,-1.734375 0.375,-3.46875 1.609375,-4.703125 0.125,-0.125 0.125,-0.140625 0.125,-0.171875 0,-0.078125 -0.03125,-0.109375 -0.09375,-0.109375 -0.109375,0 -1,0.6875 -1.59375,1.953125 -0.5,1.09375 -0.625,2.203125 -0.625,3.03125 0,0.78125 0.109375,1.984375 0.65625,3.125 C 2.25,1.84375 3.09375,2.5 3.203125,2.5 c 0.0625,0 0.09375,-0.03125 0.09375,-0.109375 z m 0,0"
           id="path9263" />
      </symbol>
      <symbol
         overflow="visible"
         id="symbol604">
        <path
           style="stroke:none"
           d="m 3.484375,-3.875 -1.28125,-0.296875 c -0.625,-0.15625 -1,-0.6875 -1,-1.265625 0,-0.703125 0.53125,-1.3125 1.3125,-1.3125 1.65625,0 1.875,1.640625 1.9375,2.078125 0.015625,0.0625 0.015625,0.125 0.125,0.125 0.125,0 0.125,-0.046875 0.125,-0.234375 v -2 c 0,-0.171875 0,-0.25 -0.109375,-0.25 -0.0625,0 -0.078125,0.015625 -0.140625,0.140625 l -0.359375,0.5625 C 3.796875,-6.625 3.390625,-7.03125 2.5,-7.03125 c -1.109375,0 -1.9375,0.875 -1.9375,1.9375 0,0.828125 0.53125,1.5625 1.296875,1.828125 0.109375,0.03125 0.625,0.15625 1.328125,0.328125 0.265625,0.0625 0.5625,0.140625 0.84375,0.5 0.203125,0.265625 0.3125,0.59375 0.3125,0.921875 0,0.703125 -0.5,1.421875 -1.34375,1.421875 -0.28125,0 -1.046875,-0.046875 -1.578125,-0.53125 C 0.84375,-1.171875 0.8125,-1.796875 0.8125,-2.15625 0.796875,-2.265625 0.71875,-2.265625 0.6875,-2.265625 c -0.125,0 -0.125,0.078125 -0.125,0.25 v 2 c 0,0.171875 0,0.234375 0.109375,0.234375 0.0625,0 0.078125,-0.015625 0.140625,-0.125 0,-0.015625 0.03125,-0.046875 0.359375,-0.578125 0.3125,0.34375 0.953125,0.703125 1.84375,0.703125 1.15625,0 1.953125,-0.96875 1.953125,-2.078125 0,-0.984375 -0.65625,-1.8125 -1.484375,-2.015625 z m 0,0"
           id="path5015" />
      </symbol>
      <symbol
         overflow="visible"
         id="symbol9073">
        <path
           style="stroke:none"
           d="m 2.875,-2.5 c 0,-0.765625 -0.109375,-1.96875 -0.65625,-3.109375 -0.59375,-1.21875 -1.453125,-1.875 -1.546875,-1.875 -0.0625,0 -0.109375,0.046875 -0.109375,0.109375 0,0.03125 0,0.046875 0.1875,0.234375 0.984375,0.984375 1.546875,2.5625 1.546875,4.640625 0,1.71875 -0.359375,3.46875 -1.59375,4.71875 C 0.5625,2.34375 0.5625,2.359375 0.5625,2.390625 0.5625,2.453125 0.609375,2.5 0.671875,2.5 0.765625,2.5 1.671875,1.8125 2.25,0.546875 2.765625,-0.546875 2.875,-1.65625 2.875,-2.5 Z m 0,0"
           id="path1131" />
      </symbol>
      <symbol
         overflow="visible"
         id="symbol1186">
        <path
           style="stroke:none"
           d=""
           id="path3493" />
      </symbol>
      <symbol
         overflow="visible"
         id="symbol5375">
        <path
           style="stroke:none"
           d="m 2.328125,-4.4375 c 0,-0.1875 0,-0.1875 -0.203125,-0.1875 -0.453125,0.4375 -1.078125,0.4375 -1.359375,0.4375 v 0.25 c 0.15625,0 0.625,0 1,-0.1875 v 3.546875 c 0,0.234375 0,0.328125 -0.6875,0.328125 H 0.8125 V 0 c 0.125,0 0.984375,-0.03125 1.234375,-0.03125 0.21875,0 1.09375,0.03125 1.25,0.03125 V -0.25 H 3.03125 c -0.703125,0 -0.703125,-0.09375 -0.703125,-0.328125 z m 0,0"
           id="path3918" />
      </symbol>
    </g>
    <g
       id="g8041">
      <symbol
         overflow="visible"
         id="symbol2629">
        <path
           style="stroke:none"
           d=""
           id="path7505" />
      </symbol>
      <symbol
         overflow="visible"
         id="symbol5253">
        <path
           style="stroke:none"
           d="M 7.0625,-2.328125 C 7.078125,-2.375 7.109375,-2.4375 7.109375,-2.46875 c 0,0 0,-0.109375 -0.125,-0.109375 -0.09375,0 -0.109375,0.0625 -0.125,0.125 C 6.203125,-0.984375 5.84375,-0.3125 4.140625,-0.3125 H 2.6875 c -0.140625,0 -0.171875,0 -0.21875,0 -0.109375,-0.015625 -0.140625,-0.03125 -0.140625,-0.109375 0,-0.03125 0,-0.046875 0.046875,-0.21875 L 3.0625,-3.375 h 0.984375 c 0.84375,0 0.84375,0.21875 0.84375,0.46875 0,0.0625 0,0.1875 -0.0625,0.484375 C 4.8125,-2.375 4.796875,-2.34375 4.796875,-2.3125 c 0,0.046875 0.03125,0.109375 0.125,0.109375 C 5,-2.203125 5.03125,-2.25 5.078125,-2.40625 l 0.5625,-2.328125 c 0,-0.0625 -0.046875,-0.109375 -0.125,-0.109375 -0.078125,0 -0.109375,0.0625 -0.125,0.171875 -0.21875,0.765625 -0.390625,1 -1.3125,1 h -0.9375 l 0.59375,-2.40625 C 3.828125,-6.4375 3.84375,-6.46875 4.28125,-6.46875 H 5.6875 c 1.203125,0 1.515625,0.28125 1.515625,1.109375 0,0.234375 0,0.25 -0.046875,0.53125 0,0.046875 -0.015625,0.125 -0.015625,0.171875 0,0.046875 0.03125,0.125 0.125,0.125 0.109375,0 0.125,-0.0625 0.140625,-0.25 L 7.609375,-6.515625 C 7.640625,-6.78125 7.59375,-6.78125 7.34375,-6.78125 H 2.296875 c -0.1875,0 -0.296875,0 -0.296875,0.203125 0,0.109375 0.09375,0.109375 0.28125,0.109375 0.375,0 0.65625,0 0.65625,0.171875 0,0.046875 0,0.0625 -0.0625,0.25 L 1.5625,-0.78125 c -0.09375,0.390625 -0.109375,0.46875 -0.90625,0.46875 -0.171875,0 -0.28125,0 -0.28125,0.1875 C 0.375,0 0.46875,0 0.65625,0 h 5.171875 c 0.234375,0 0.25,-0.015625 0.3125,-0.171875 z m 0,0"
           id="path4826" />
      </symbol>
    </g>
    <rect
       x="11.584769"
       y="244.87007"
       width="97.740219"
       height="24.442223"
       id="rect46249" />
  </defs>
  <g
     inkscape:label="Calque 1"
     inkscape:groupmode="layer"
     id="layer1">
    <path
       style="fill:none;stroke:#000000;stroke-width:0.480987;stroke-linecap:round;stroke-linejoin:miter;stroke-miterlimit:4;stroke-dasharray:none;stroke-opacity:1;marker-end:url(#Arrow1Mend)"
       d="M 47.571442,68.820411 V 2.1619583"
       id="path857"
       inkscape:export-filename="/home/jgaliana/notebooks/autocorrelation2spectrum/quantics_spectra_energy.png"
       inkscape:export-xdpi="300"
       inkscape:export-ydpi="300" />
    <path
       style="fill:none;stroke:#000000;stroke-width:0.342761px;stroke-linecap:butt;stroke-linejoin:miter;stroke-opacity:1"
       d="m 61.446482,2.9991523 c 0,0 1.564935,25.2955117 17.150008,25.4867487 C 94.377176,28.679538 96.644896,3.0834603 96.644896,3.0834603"
       id="path1300"
       sodipodi:nodetypes="csc"
       inkscape:export-filename="/home/jgaliana/notebooks/autocorrelation2spectrum/quantics_spectra_energy.png"
       inkscape:export-xdpi="300"
       inkscape:export-ydpi="300" />
    <path
       style="fill:none;stroke:#000000;stroke-width:0.257269px;stroke-linecap:butt;stroke-linejoin:miter;stroke-opacity:1"
       d="M 65.584558,18.982381 H 92.084655"
       id="path2161"
       sodipodi:nodetypes="cc"
       inkscape:export-filename="/home/jgaliana/notebooks/autocorrelation2spectrum/quantics_spectra_energy.png"
       inkscape:export-xdpi="300"
       inkscape:export-ydpi="300" />
    <path
       style="fill:none;stroke:#000000;stroke-width:0.202798px;stroke-linecap:butt;stroke-linejoin:miter;stroke-opacity:1"
       d="M 68.834755,23.744911 H 88.880003"
       id="path2163"
       sodipodi:nodetypes="cc"
       inkscape:export-filename="/home/jgaliana/notebooks/autocorrelation2spectrum/quantics_spectra_energy.png"
       inkscape:export-xdpi="300"
       inkscape:export-ydpi="300" />
    <path
       style="fill:none;stroke:#000000;stroke-width:0.296391px;stroke-linecap:butt;stroke-linejoin:miter;stroke-opacity:1"
       d="M 63.631438,14.219851 H 94.150569"
       id="path2165"
       sodipodi:nodetypes="cc"
       inkscape:export-filename="/home/jgaliana/notebooks/autocorrelation2spectrum/quantics_spectra_energy.png"
       inkscape:export-xdpi="300"
       inkscape:export-ydpi="300" />
    <g
       id="g2179"
       transform="translate(-4.2391305,-50.042722)"
       inkscape:export-filename="/home/jgaliana/notebooks/autocorrelation2spectrum/quantics_spectra_energy.png"
       inkscape:export-xdpi="300"
       inkscape:export-ydpi="300">
      <path
         style="fill:none;stroke:#000000;stroke-width:0.342761px;stroke-linecap:butt;stroke-linejoin:miter;stroke-opacity:1"
         d="m 64.810086,77.877656 c 0,0 9.469849,40.864524 25.054922,41.055764 15.780692,0.19364 27.369742,-41.002546 27.369742,-41.002546"
         id="path1865"
         sodipodi:nodetypes="csc" />
      <path
         style="fill:none;stroke:#000000;stroke-width:0.268413px;stroke-linecap:butt;stroke-linejoin:miter;stroke-opacity:1"
         d="M 77.282593,109.63557 H 103.11513"
         id="path2075" />
      <path
         style="fill:none;stroke:#000000;stroke-width:0.206753px;stroke-linecap:butt;stroke-linejoin:miter;stroke-opacity:1"
         d="M 81.081478,114.3981 H 99.051352"
         id="path2157" />
      <path
         style="fill:none;stroke:#000000;stroke-width:0.309915px;stroke-linecap:butt;stroke-linejoin:miter;stroke-opacity:1"
         d="M 74.601643,104.87304 H 106.10983"
         id="path2159" />
    </g>
    <path
       style="fill:none;stroke:#000000;stroke-width:0.065;stroke-linecap:butt;stroke-linejoin:miter;stroke-miterlimit:4;stroke-dasharray:0.195, 0.195;stroke-dashoffset:0;stroke-opacity:1"
       d="M 76.842345,64.355378 H 47.483351"
       id="path2214"
       inkscape:export-filename="/home/jgaliana/notebooks/autocorrelation2spectrum/quantics_spectra_energy.png"
       inkscape:export-xdpi="300"
       inkscape:export-ydpi="300" />
    <path
       style="fill:none;stroke:#000000;stroke-width:0.0603284;stroke-linecap:butt;stroke-linejoin:miter;stroke-miterlimit:4;stroke-dasharray:0.180985, 0.180985;stroke-dashoffset:0;stroke-opacity:1"
       d="M 73.043461,59.592848 H 47.752888"
       id="path2296"
       inkscape:export-filename="/home/jgaliana/notebooks/autocorrelation2spectrum/quantics_spectra_energy.png"
       inkscape:export-xdpi="300"
       inkscape:export-ydpi="300" />
    <path
       style="fill:none;stroke:#000000;stroke-width:0.0571524;stroke-linecap:butt;stroke-linejoin:miter;stroke-miterlimit:4;stroke-dasharray:0.171457, 0.171457;stroke-dashoffset:0;stroke-opacity:1"
       d="M 70.362511,54.830318 H 47.664707"
       id="path2298"
       inkscape:export-filename="/home/jgaliana/notebooks/autocorrelation2spectrum/quantics_spectra_energy.png"
       inkscape:export-xdpi="300"
       inkscape:export-ydpi="300" />
    <path
       style="fill:none;stroke:#000000;stroke-width:0.0565119;stroke-linecap:butt;stroke-linejoin:miter;stroke-miterlimit:4;stroke-dasharray:0.169536, 0.169536;stroke-dashoffset:0;stroke-opacity:1"
       d="m 70.008437,23.744911 h -22.5824"
       id="path2300"
       inkscape:export-filename="/home/jgaliana/notebooks/autocorrelation2spectrum/quantics_spectra_energy.png"
       inkscape:export-xdpi="300"
       inkscape:export-ydpi="300" />
    <path
       style="fill:none;stroke:#000000;stroke-width:0.0519545;stroke-linecap:butt;stroke-linejoin:miter;stroke-miterlimit:4;stroke-dasharray:0.155863, 0.155863;stroke-dashoffset:0;stroke-opacity:1"
       d="M 66.588415,18.982381 H 47.735489"
       id="path2302"
       inkscape:export-filename="/home/jgaliana/notebooks/autocorrelation2spectrum/quantics_spectra_energy.png"
       inkscape:export-xdpi="300"
       inkscape:export-ydpi="300" />
    <path
       style="fill:none;stroke:#000000;stroke-width:0.0487448;stroke-linecap:butt;stroke-linejoin:miter;stroke-miterlimit:4;stroke-dasharray:0.146234, 0.146234;stroke-dashoffset:0;stroke-opacity:1"
       d="M 64.036271,14.219851 H 47.525321"
       id="path2304"
       inkscape:export-filename="/home/jgaliana/notebooks/autocorrelation2spectrum/quantics_spectra_energy.png"
       inkscape:export-xdpi="300"
       inkscape:export-ydpi="300" />
    <g
       inkscape:label=""
       transform="matrix(0.29565389,0,0,0.29565389,8.4220513,40.859524)"
       id="g2382"
       inkscape:export-filename="/home/jgaliana/notebooks/autocorrelation2spectrum/quantics_spectra_energy.png"
       inkscape:export-xdpi="300"
       inkscape:export-ydpi="300">
      <g
         id="g9561">
        <g
           style="fill:#000000;fill-opacity:1"
           id="g8791">
          <use
             xlink:href="#symbol9573"
             x="91.925003"
             y="81.962997"
             id="use1020"
             width="100%"
             height="100%" />
          <use
             xlink:href="#symbol1513"
             x="98.013145"
             y="81.962997"
             id="use5671"
             width="100%"
             height="100%" />
          <use
             xlink:href="#symbol3778"
             x="104.79369"
             y="81.962997"
             id="use8973"
             width="100%"
             height="100%" />
          <use
             xlink:href="#symbol9621"
             x="111.57423"
             y="81.962997"
             id="use6569"
             width="100%"
             height="100%" />
          <use
             xlink:href="#symbol2485"
             x="115.44869"
             y="81.962997"
             id="use9486"
             width="100%"
             height="100%" />
        </g>
        <g
           style="fill:#000000;fill-opacity:1"
           id="g6821">
          <use
             xlink:href="#symbol4502"
             x="120.983"
             y="83.457001"
             id="use4322"
             width="100%"
             height="100%" />
        </g>
        <g
           style="fill:#000000;fill-opacity:1"
           id="g5094">
          <use
             xlink:href="#symbol1235"
             x="125.452"
             y="81.962997"
             id="use1474"
             width="100%"
             height="100%" />
        </g>
      </g>
    </g>
    <g
       inkscape:label=""
       transform="matrix(0.29566197,0,0,0.29566197,5.4753375,0.24841527)"
       id="g2578"
       inkscape:export-filename="/home/jgaliana/notebooks/autocorrelation2spectrum/quantics_spectra_energy.png"
       inkscape:export-xdpi="300"
       inkscape:export-ydpi="300">
      <g
         id="g2576">
        <g
           style="fill:#000000;fill-opacity:1"
           id="g7075">
          <use
             xlink:href="#symbol7288"
             x="91.925003"
             y="81.962997"
             id="use4363"
             width="100%"
             height="100%" />
          <use
             xlink:href="#symbol1601"
             x="96.906303"
             y="81.962997"
             id="use9099"
             width="100%"
             height="100%" />
          <use
             xlink:href="#symbol7113"
             x="102.99445"
             y="81.962997"
             id="use9111"
             width="100%"
             height="100%" />
          <use
             xlink:href="#symbol8638"
             x="109.77499"
             y="81.962997"
             id="use218"
             width="100%"
             height="100%" />
          <use
             xlink:href="#symbol7288"
             x="116.55553"
             y="81.962997"
             id="use7667"
             width="100%"
             height="100%" />
          <use
             xlink:href="#symbol3927"
             x="121.53683"
             y="81.962997"
             id="use4779"
             width="100%"
             height="100%" />
          <use
             xlink:href="#symbol604"
             x="125.41129"
             y="81.962997"
             id="use4979"
             width="100%"
             height="100%" />
        </g>
        <g
           style="fill:#000000;fill-opacity:1"
           id="g4149">
          <use
             xlink:href="#symbol5375"
             x="130.946"
             y="83.457001"
             id="use9742"
             width="100%"
             height="100%" />
        </g>
        <g
           style="fill:#000000;fill-opacity:1"
           id="g3964">
          <use
             xlink:href="#symbol9073"
             x="135.41499"
             y="81.962997"
             id="use8074"
             width="100%"
             height="100%" />
        </g>
      </g>
    </g>
    <g
       inkscape:label=""
       transform="matrix(0.43531797,0,0,0.43531797,3.0296002,-31.411828)"
       id="g2821"
       inkscape:export-filename="/home/jgaliana/notebooks/autocorrelation2spectrum/quantics_spectra_energy.png"
       inkscape:export-xdpi="300"
       inkscape:export-ydpi="300">
      <g
         id="g9806">
        <g
           style="fill:#000000;fill-opacity:1"
           id="g2937">
          <use
             xlink:href="#symbol5253"
             x="91.925003"
             y="81.962997"
             id="use9382"
             width="100%"
             height="100%" />
        </g>
      </g>
    </g>
    <path
       style="fill:none;stroke:#000000;stroke-width:0.200076;stroke-linecap:round;stroke-linejoin:miter;stroke-miterlimit:4;stroke-dasharray:none;stroke-opacity:1"
       d="m 31.780283,2.4988393 c -2.745377,0 -0.836696,11.5759697 -2.779127,11.5759697 1.882354,0 -0.03782,11.555615 2.653463,11.575968"
       id="path24579"
       sodipodi:nodetypes="ccc"
       inkscape:export-filename="/home/jgaliana/notebooks/autocorrelation2spectrum/quantics_spectra_energy.png"
       inkscape:export-xdpi="300"
       inkscape:export-ydpi="300" />
    <path
       style="fill:none;stroke:#000000;stroke-width:0.200076;stroke-linecap:round;stroke-linejoin:miter;stroke-miterlimit:4;stroke-dasharray:none;stroke-opacity:1"
       d="m 31.780283,42.579275 c -2.745377,0 -0.836696,11.575995 -2.779127,11.575995 1.882354,0 -0.03782,11.55568 2.653463,11.57603"
       id="path17863"
       sodipodi:nodetypes="ccc"
       inkscape:export-filename="/home/jgaliana/notebooks/autocorrelation2spectrum/quantics_spectra_energy.png"
       inkscape:export-xdpi="300"
       inkscape:export-ydpi="300" />
    <text
       xml:space="preserve"
       transform="matrix(0.26458333,0,0,0.26458333,-1.8649232,-53.412813)"
       id="text21935"
       style="font-size:8px;line-height:1.25;font-family:sans-serif;letter-spacing:0px;word-spacing:0px;white-space:pre;shape-inside:url(#rect21937)"
       x="0"
       y="0"
       inkscape:export-filename="/home/jgaliana/notebooks/autocorrelation2spectrum/quantics_spectra_energy.png"
       inkscape:export-xdpi="300"
       inkscape:export-ydpi="300"><tspan
         x="11.583984"
         y="252.05992"
         id="tspan54443"><tspan
           dx="0 0 0 0 0 0 0 0 0 5.1985664 0 0 0 0 0 0 5.1985664 0 0 0 5.1985703"
           style="font-family:cmr10;-inkscape-font-specification:'cmr10, Normal';text-align:justify"
           id="tspan54441">Energies probed for the </tspan></tspan><tspan
         x="11.583984"
         y="262.17258"
         id="tspan54447"><tspan
           style="font-family:cmr10;-inkscape-font-specification:'cmr10, Normal';text-align:justify"
           id="tspan54445">absorption spectrum</tspan></tspan></text>
    <text
       xml:space="preserve"
       transform="matrix(0.26458333,0,0,0.26458333,-1.858722,-13.332334)"
       id="text46247"
       style="font-size:8px;line-height:1.25;font-family:sans-serif;letter-spacing:0px;word-spacing:0px;white-space:pre;shape-inside:url(#rect46249)"
       x="0"
       y="0"
       inkscape:export-filename="/home/jgaliana/notebooks/autocorrelation2spectrum/quantics_spectra_energy.png"
       inkscape:export-xdpi="300"
       inkscape:export-ydpi="300"><tspan
         x="11.583984"
         y="252.05992"
         id="tspan54451"><tspan
           dx="0 0 0 0 0 0 0 0 0 5.1985664 0 0 0 0 0 0 5.1985664 0 0 0 5.1985703"
           style="font-family:cmr10;-inkscape-font-specification:'cmr10, Normal';text-align:justify"
           id="tspan54449">Energies probed for the </tspan></tspan><tspan
         x="11.583984"
         y="262.17258"
         id="tspan54455"><tspan
           style="font-family:cmr10;-inkscape-font-specification:'cmr10, Normal';text-align:justify"
           id="tspan54453">emission spectrum</tspan></tspan></text>
    <path
       style="opacity:0.567553;mix-blend-mode:normal;fill:#000000;fill-opacity:1;stroke:#0050a1;stroke-width:1.28291;stroke-linecap:butt;stroke-linejoin:round;stroke-miterlimit:4;stroke-dasharray:none;stroke-opacity:1;marker-start:url(#Arrow1Mstart)"
       d="M 76.825966,21.071958 V 64.290221"
       id="path47124"
       inkscape:export-filename="/home/jgaliana/notebooks/autocorrelation2spectrum/quantics_spectra_energy.png"
       inkscape:export-xdpi="300"
       inkscape:export-ydpi="300" />
    <path
       style="opacity:0.567553;mix-blend-mode:normal;fill:#000000;fill-opacity:1;stroke:#ff1d00;stroke-width:1.319;stroke-linecap:butt;stroke-linejoin:round;stroke-miterlimit:4;stroke-dasharray:none;stroke-opacity:1;marker-start:url(#Arrow1Mstart)"
       d="M 85.517848,56.201938 V 23.700018"
       id="path51491"
       inkscape:export-filename="/home/jgaliana/notebooks/autocorrelation2spectrum/quantics_spectra_energy.png"
       inkscape:export-xdpi="300"
       inkscape:export-ydpi="300" />
    <path
       style="fill:none;stroke:#000000;stroke-width:0.265;stroke-linecap:round;stroke-linejoin:miter;stroke-miterlimit:4;stroke-dasharray:none;stroke-opacity:1"
       d="M 52.912276,68.930261 H 47.561324"
       id="path53533"
       inkscape:export-filename="/home/jgaliana/notebooks/autocorrelation2spectrum/quantics_spectra_energy.png"
       inkscape:export-xdpi="300"
       inkscape:export-ydpi="300" />
  </g>
</svg>
